# xmcd CD database file
#
# Track frame offsets:
#	150
#	10587
#	22415
#	34722
#	49790
#	59617
#	81945
#	95925
#	108872
#
# Disc length: 1656 seconds
#
# Revision: 1
# Processed by: cddbd v1.5.1PL2 Copyright (c) Steve Scherf et al.
# Submitted via: jetAudio 5
#
DISCID=74067609
DTITLE=Robert François - A la Québécoise
DYEAR=1900
DGENRE=
TTITLE0=Under the stormy sky
TTITLE1=Take me home, country roads
TTITLE2=Le grand six-pieds
TTITLE3=Allouette, gentille alouette
TTITLE4=La danse à Saint Dilon
TTITLE5=Pot Pourri d'airs traditionnels
TTITLE6=Je viens chez vous
TTITLE7=La vie en rose
TTITLE8=Souvenir de Villingen
EXTD=Canada
EXTT0=
EXTT1=
EXTT2=
EXTT3=
EXTT4=
EXTT5=
EXTT6=
EXTT7=
EXTT8=
PLAYORDER=
